<svg xmlns="http://www.w3.org/2000/svg" xmlns:xlink="http://www.w3.org/1999/xlink" xmlns:inkscape="http://www.inkscape.org/namespaces/inkscape" version="1.1" width="1547.8899" height="170" viewBox="0 0 1547.8899 170">
<g>
<path d="M641.918 0V170H752.414V140.25H674.219V97.75H745.617V68.852H674.219V29.75H752.414V0H641.918" fill="#0000cd"/>
<path d="M509.344 112.199H483.844V170H451.547V0H509.344C545.598 0 573.945 16.418 573.945 56.102 573.945 95.199 545.383 112.199 509.344 112.199M507.645 27.453H483.844V84.746H507.645C526.262 84.746 539.945 75.734 539.945 56.102 539.945 35.699 526.262 27.453 507.645 27.453" fill="#0000cd"/>
<path d="M1032.93 0V29.75H1072.879V140.25H1032.93V170H1145.129V140.25H1105.18V29.75H1145.129V0H1032.93" fill="#0000cd"/>
<path d="M958.566 52.699C958.566 13.016 931.367 0 895.664 0H832.766V170H865.066V107.102H892.266C893.754 107.102 895.238 107.074 896.703 107.02L929.613 170H965.398L928.887 100.281C946.656 92.387 958.566 77.227 958.566 52.699M924.566 52.699C924.566 73.184 912.664 79.645 892.266 79.645H865.066V27.453H892.266C914.398 27.453 924.566 35.699 924.566 52.699" fill="#0000cd"/>
<path d="M1265.59 0 1209.488 170H1243.488L1255.078 132.602H1318.602L1330.191 170H1364.191L1308.09 0ZM1286.84 30.16 1310.078 105.145H1263.59ZM1286.84 30.16" fill="#0000cd"/>
<path d="M1437.109 0V170H1547.891V140.25H1469.41V0H1437.109" fill="#0000cd"/>
<path d="M323.473 0 282.672 99.961 241.871 0H195.973V170H226.57V42.898L265.672 132.602H299.672L338.77 42.898V170H369.371V0H323.473" fill="#0000cd"/>
<path d="M0 0V29.75H39.949V140.25H0V170H112.199V140.25H72.25V29.75H112.199V0H0" fill="#0000cd"/>
</g>
</svg>
